<?xml version="1.0" encoding="UTF-8"?>
<svg xmlns="http://www.w3.org/2000/svg" xmlns:xlink="http://www.w3.org/1999/xlink" width="192.76pt" height="192.76pt" viewBox="0 0 192.76 192.76" version="1.1">
<g id="surface1">
<path style=" stroke:none;fill-rule:evenodd;fill:none;fill-opacity:1;" d="M 0 0.00390625 L 192.757813 0.00390625 L 192.757813 192.761719 L 0 192.761719 L 0 0.00390625 "/>
<path style=" stroke:none;fill-rule:nonzero;fill:rgb(13.699341%,12.199402%,12.5%);fill-opacity:1;" d="M 31.277344 73.289063 C 28.09375 73.480469 26.921875 73.804688 26.921875 77.503906 L 26.921875 100.058594 C 26.921875 101.929688 27.765625 101.980469 31.648438 101.980469 C 38.671875 101.980469 41.667969 101.789063 44.335938 95.660156 L 45.507813 95.660156 L 43.257813 103.804688 L 18.074219 103.804688 L 18.074219 102.914063 C 21.074219 102.726563 22.148438 102.304688 22.148438 98.699219 L 22.148438 77.503906 C 22.148438 73.804688 21.023438 73.527344 18.074219 73.289063 L 18.074219 72.402344 L 31.277344 72.402344 L 31.277344 73.289063 "/>
<path style=" stroke:none;fill-rule:nonzero;fill:rgb(13.699341%,12.199402%,12.5%);fill-opacity:1;" d="M 54.769531 78.152344 C 53.601563 78.152344 52.527344 77.355469 52.527344 75.714844 C 52.527344 74.078125 53.601563 73.191406 54.726563 73.191406 C 56.269531 73.191406 57.066406 74.734375 57.066406 75.761719 C 57.066406 76.699219 56.316406 78.152344 54.769531 78.152344 Z M 55.707031 98.980469 C 53.882813 101.742188 51.824219 104.316406 49.203125 104.316406 C 47.003906 104.316406 47.003906 102.257813 47.003906 101.414063 C 47.003906 99.214844 50.703125 87.605469 50.703125 86.296875 C 50.703125 85.3125 50.328125 85.078125 47.75 85.078125 L 47.75 84.332031 C 49.527344 84.238281 53.414063 83.488281 55.242188 83.160156 L 55.382813 83.253906 L 51.261719 98.328125 C 51.074219 98.980469 50.515625 100.851563 50.515625 101.414063 C 50.515625 101.742188 50.839844 102.117188 51.261719 102.117188 C 51.824219 102.117188 53.179688 101.183594 55.097656 98.46875 L 55.707031 98.980469 "/>
<path style=" stroke:none;fill-rule:nonzero;fill:rgb(13.699341%,12.199402%,12.5%);fill-opacity:1;" d="M 60.34375 87.980469 C 60.34375 85.03125 59.453125 84.984375 58.703125 84.984375 C 58.050781 84.984375 57.582031 85.078125 57.207031 85.171875 L 57.207031 84.378906 C 59.40625 83.769531 61.605469 83.066406 63.761719 82.273438 L 64.085938 82.363281 L 64.085938 85.875 C 66.851563 83.769531 68.769531 82.273438 71.296875 82.273438 C 74.339844 82.273438 75.789063 84.238281 76.304688 86.203125 C 77.289063 85.078125 80.140625 82.273438 83.839844 82.273438 C 88.707031 82.273438 89.363281 87.140625 89.363281 90.601563 L 89.363281 100.246094 C 89.363281 101.273438 89.320313 102.679688 91.375 103.007813 L 92.59375 103.101563 L 92.59375 103.804688 L 82.34375 103.804688 L 82.34375 103.101563 C 84.683594 102.820313 85.429688 102.726563 85.429688 99.730469 L 85.429688 89.855469 C 85.429688 87.464844 85.386719 84.707031 82.015625 84.707031 C 79.441406 84.707031 77.851563 85.96875 76.820313 87.5625 L 76.820313 99.355469 C 76.820313 102.914063 78.269531 103.054688 80.1875 103.101563 L 80.1875 103.804688 L 69.707031 103.804688 L 69.707031 103.101563 C 71.808594 102.957031 72.886719 102.820313 72.886719 99.777344 L 72.886719 89.617188 C 72.886719 86.53125 72.09375 84.707031 69.65625 84.707031 C 66.425781 84.707031 64.277344 87.230469 64.277344 87.464844 L 64.277344 100.664063 C 64.277344 102.957031 65.820313 103.054688 67.457031 103.101563 L 67.457031 103.804688 L 57.066406 103.804688 L 57.066406 103.101563 C 58.9375 103.054688 60.34375 102.957031 60.34375 99.824219 L 60.34375 87.980469 "/>
<path style=" stroke:none;fill-rule:nonzero;fill:rgb(13.699341%,12.199402%,12.5%);fill-opacity:1;" d="M 97.320313 73.074219 C 98.726563 73.074219 99.753906 74.152344 99.753906 75.464844 C 99.753906 76.816406 98.726563 77.847656 97.320313 77.847656 C 95.636719 77.847656 94.980469 76.351563 94.980469 75.464844 C 94.980469 74.570313 95.683594 73.074219 97.320313 73.074219 Z M 92.078125 103.101563 C 94.980469 102.957031 95.777344 102.679688 95.777344 99.027344 L 95.777344 88.167969 C 95.777344 85.40625 94.886719 85.363281 94.136719 85.363281 C 93.480469 85.363281 92.875 85.453125 92.265625 85.546875 L 92.265625 84.847656 C 94.699219 84.050781 97.085938 83.160156 99.519531 82.273438 L 99.710938 82.410156 L 99.710938 99.027344 C 99.710938 102.117188 99.945313 102.914063 103.171875 103.101563 L 103.171875 103.804688 L 92.078125 103.804688 L 92.078125 103.101563 "/>
<path style=" stroke:none;fill-rule:nonzero;fill:rgb(13.699341%,12.199402%,12.5%);fill-opacity:1;" d="M 114.875 84.238281 L 110.148438 84.238281 L 110.148438 97.625 C 110.148438 99.074219 110.148438 101.835938 112.53125 101.835938 C 114.03125 101.835938 114.875 100.808594 115.390625 100.199219 L 116 100.714844 C 114.875 102.726563 112.675781 104.273438 110.519531 104.273438 C 108.132813 104.273438 106.214844 103.007813 106.214844 98.328125 L 106.214844 84.238281 L 103.730469 84.238281 C 103.644531 84.191406 103.546875 84.050781 103.546875 83.910156 C 103.546875 83.347656 104.578125 83.066406 105.605469 82.039063 C 107.386719 80.210938 108.089844 79.183594 109.820313 76.699219 C 110.148438 76.699219 110.148438 76.933594 110.148438 77.308594 L 110.148438 82.738281 L 114.875 82.738281 L 114.875 84.238281 "/>
<path style=" stroke:none;fill-rule:nonzero;fill:rgb(69.398499%,70.199585%,71.398926%);fill-opacity:1;" d="M 115.53125 103.101563 C 118.289063 102.914063 119.136719 102.304688 119.136719 99.730469 L 119.136719 77.402344 C 119.136719 75.296875 118.851563 74.546875 117.027344 74.546875 C 116.421875 74.546875 116 74.59375 115.4375 74.640625 L 115.4375 73.894531 C 117.914063 73.285156 120.398438 72.628906 122.878906 71.832031 L 123.066406 71.925781 L 123.066406 99.871094 C 123.066406 102.585938 123.859375 102.957031 126.578125 103.101563 L 126.578125 103.804688 L 115.53125 103.804688 L 115.53125 103.101563 "/>
<path style=" stroke:none;fill-rule:nonzero;fill:rgb(69.398499%,70.199585%,71.398926%);fill-opacity:1;" d="M 145.253906 96.125 C 144.179688 97.859375 142.164063 101.039063 138 101.039063 C 134.910156 101.039063 131.117188 99.125 130.558594 90.835938 L 145.113281 90.835938 C 144.597656 84.707031 141.277344 82.273438 136.875 82.273438 C 133.128906 82.273438 127.328125 85.128906 127.328125 93.785156 C 127.328125 100.433594 130.882813 104.273438 136.082031 104.273438 C 142.816406 104.273438 145.535156 97.90625 146.003906 96.453125 Z M 130.695313 89.339844 C 131.445313 85.222656 133.269531 83.957031 135.847656 83.957031 C 139.542969 83.957031 140.011719 87.089844 140.335938 89.339844 L 130.695313 89.339844 "/>
<path style=" stroke:none;fill-rule:nonzero;fill:rgb(69.398499%,70.199585%,71.398926%);fill-opacity:1;" d="M 159.578125 89.105469 C 158.546875 84.332031 156.441406 83.347656 154.382813 83.347656 C 151.804688 83.347656 150.824219 85.171875 150.824219 86.390625 C 150.824219 87.324219 151.105469 88.683594 152.835938 89.714844 L 157.894531 92.707031 C 160.183594 94.113281 161.820313 95.425781 161.820313 98.234375 C 161.820313 102.304688 158.027344 104.273438 155.035156 104.273438 C 152.929688 104.273438 150.914063 103.382813 149.605469 103.429688 C 149.042969 103.429688 148.855469 103.566406 148.574219 103.992188 L 147.96875 103.992188 L 147.96875 96.691406 L 148.714844 96.691406 C 149.277344 99.167969 150.167969 103.242188 154.753906 103.242188 C 156.347656 103.242188 158.546875 102.492188 158.546875 99.824219 C 158.546875 98.328125 157.613281 97.203125 156.113281 96.359375 L 153.398438 94.816406 C 150.492188 93.179688 147.921875 91.445313 147.921875 87.980469 C 147.921875 85.363281 149.933594 82.273438 154.472656 82.273438 C 156.53125 82.273438 157.984375 83.207031 158.78125 83.207031 C 159.203125 83.207031 159.4375 82.878906 159.578125 82.691406 L 160.09375 82.691406 L 160.277344 89.105469 L 159.578125 89.105469 "/>
<path style=" stroke:none;fill-rule:nonzero;fill:rgb(69.398499%,70.199585%,71.398926%);fill-opacity:1;" d="M 176.375 89.105469 C 175.347656 84.332031 173.242188 83.347656 171.179688 83.347656 C 168.605469 83.347656 167.625 85.171875 167.625 86.390625 C 167.625 87.324219 167.90625 88.683594 169.640625 89.714844 L 174.691406 92.707031 C 176.984375 94.113281 178.625 95.425781 178.625 98.234375 C 178.625 102.304688 174.835938 104.273438 171.839844 104.273438 C 169.730469 104.273438 167.714844 103.382813 166.402344 103.429688 C 165.847656 103.429688 165.660156 103.566406 165.375 103.992188 L 164.769531 103.992188 L 164.769531 96.691406 L 165.515625 96.691406 C 166.078125 99.167969 166.96875 103.242188 171.554688 103.242188 C 173.144531 103.242188 175.347656 102.492188 175.347656 99.824219 C 175.347656 98.328125 174.410156 97.203125 172.914063 96.359375 L 170.195313 94.816406 C 167.292969 93.179688 164.726563 91.445313 164.726563 87.980469 C 164.726563 85.363281 166.734375 82.273438 171.273438 82.273438 C 173.335938 82.273438 174.78125 83.207031 175.582031 83.207031 C 176.003906 83.207031 176.234375 82.878906 176.375 82.691406 L 176.894531 82.691406 L 177.078125 89.105469 L 176.375 89.105469 "/>
</g>
</svg>
